<svg version="1.1" xmlns="http://www.w3.org/2000/svg" xmlns:xlink="http://www.w3.org/1999/xlink" width="648.24795" height="396.03622" viewBox="0,0,648.24795,396.03622"><defs><radialGradient cx="48.73372" cy="44.9294" r="34.35294" gradientUnits="userSpaceOnUse" id="color-1"><stop offset="0" stop-color="#fffc00"/><stop offset="1" stop-color="#848100"/></radialGradient></defs><g transform="translate(4.22408,1.00203)"><g stroke-miterlimit="10"><path d="M-3.2186,0h646.24045v394l-644.95876,-20.37931z" fill="#99ffff" stroke="#ccffff" stroke-width="2.00406"/><path d="M48.73372,10.57646c9.2672,0 17.66444,3.84941 23.74472,10.06776c6.08028,6.21929 9.84426,14.80753 9.84426,24.28518c0,9.47765 -3.76398,18.06588 -9.84426,24.28517c-6.08028,6.21835 -14.47752,10.06776 -23.74472,10.06776c-9.2672,0 -17.66444,-3.84941 -23.74472,-10.06776c-6.08028,-6.21929 -9.84426,-14.80753 -9.84426,-24.28517c0,-9.47765 3.76398,-18.06588 9.84426,-24.28518c6.08028,-6.21835 14.47752,-10.06776 23.74472,-10.06776z" fill="url(#color-1)" stroke="none" stroke-width="0"/></g></g></svg>