<svg version="1.1" xmlns="http://www.w3.org/2000/svg" xmlns:xlink="http://www.w3.org/1999/xlink" width="659.60878" height="367.62531" viewBox="0,0,659.60878,367.62531"><defs><radialGradient cx="52.14273" cy="47.86787" r="35.28529" gradientUnits="userSpaceOnUse" id="color-1"><stop offset="0" stop-color="#fff700"/><stop offset="1" stop-color="#8e8900"/></radialGradient></defs><g transform="translate(11.88717,2.76122)"><g stroke-miterlimit="10"><path d="M-4.50372,-1.75919h646.2913v326.75919l-645.00952,-16.90134z" fill="#70c5cd" stroke="#ccffff" stroke-width="2.00406"/><path d="M594.10974,247.42646c16.19627,-0.53467 34.42602,4.24571 44.34946,13.54706c10.56641,9.85909 7.67109,24.56341 6.7783,37.03823c0.43575,12.83656 2.22135,27.53943 -8.13396,37.97499c-9.56709,9.66597 -26.99313,16.72053 -42.9938,16.64559c-23.80346,-0.11097 -50.92441,-5.89441 -68.4531,-15.41627c-17.52869,-9.5233 -28.37978,-22.67403 -28.37978,-37.18667c0,-14.51265 10.85109,-27.66338 28.37978,-37.18668c17.52869,-9.52185 44.66707,-14.64523 68.4531,-15.41626z" fill="#ffffff" stroke="#ffffff" stroke-width="2.88236"/><path d="M103.65711,237.57646c20.71868,0 39.49241,3.84941 53.08608,10.06776c13.59367,6.21929 22.0088,14.80753 22.0088,24.28518c0,9.47764 -8.41513,18.06588 -22.0088,24.28517c-13.59367,6.21835 -32.3674,10.06777 -53.08608,10.06777c-20.71868,0 -39.49241,-3.84942 -53.08607,-10.06777c-13.59367,-6.21929 -22.00881,-14.80753 -22.00881,-24.28517c0,-9.47764 8.41514,-18.06588 22.00881,-24.28518c13.59367,-6.21836 32.3674,-10.06776 53.08608,-10.06776z" fill="#ffffff" stroke="#ffffff" stroke-width="2.06637"/><path d="M256.14322,229.87646c26.7162,0 50.92441,5.89441 68.4531,15.41627c17.52869,9.52329 28.37978,22.67403 28.37978,37.18668c0,14.51265 -10.85109,27.66338 -28.37978,37.18667c-17.52869,9.52185 -41.7369,15.41627 -68.4531,15.41627c-26.71619,0 -50.92441,-5.89442 -68.4531,-15.41627c-17.52869,-9.5233 -28.37977,-22.67403 -28.37977,-37.18667c0,-14.51265 10.85108,-27.66338 28.37977,-37.18668c17.52869,-9.52185 41.73691,-15.41627 68.4531,-15.41627z" fill="#ffffff" stroke="#ffffff" stroke-width="2.88236"/><path d="M428.15004,237.87646c26.71619,0 50.92441,5.89441 68.4531,15.41627c17.52869,9.52329 28.37978,22.67403 28.37978,37.18668c0,14.51265 -10.85109,27.66338 -28.37978,37.18667c-17.52869,9.52185 -41.73691,15.41627 -68.4531,15.41627c-26.71619,0 -50.92441,-5.89442 -68.4531,-15.41627c-17.52869,-9.5233 -28.37977,-22.67403 -28.37977,-37.18667c0,-14.51265 10.85109,-27.66338 28.37977,-37.18668c17.52869,-9.52185 41.73691,-15.41627 68.4531,-15.41627z" fill="#ffffff" stroke="#ffffff" stroke-width="2.88236"/><path d="M-6.56099,244.99705c7.98922,-3.21318 21.76774,10.32094 30.35471,19.19717c6.47083,6.67388 13.79451,14.98541 13.79451,24.28518c0,9.29976 -5.4184,20.24658 -13.79451,24.28517l-27.67187,-3.76753l-1.31788,-34.96471c-0.43208,-11.6433 -7.87061,-27.32893 -1.36495,-29.03529z" fill="#ffffff" stroke="#ffffff" stroke-width="1.65924"/><path d="M-1.18325,279l631.58754,-3l10.75043,60l-645.02557,5z" fill="#ffffff" stroke="#ffffff" stroke-width="2"/><path d="M-10.57311,338.61669h651.71102v24.93334h-651.71102z" fill="#ffffff" stroke="#ffffff" stroke-width="2.62812"/><path d="M85.92651,47.86787c0,19.48752 -15.12552,35.28529 -33.78378,35.28529c-18.65827,0 -33.78378,-15.79776 -33.78378,-35.28529c0,-19.48752 15.12552,-35.28529 33.78378,-35.28529c18.65827,0 33.78378,15.79776 33.78378,35.28529z" fill="url(#color-1)" stroke="#8e8900" stroke-width="5"/></g></g></svg>